<svg width="342" height="68" viewBox="0 0 342 68" fill="none" xmlns="http://www.w3.org/2000/svg">
<path d="M0 34C0 15.2223 15.2223 0 34 0H100V68H34C15.2223 68 0 52.7777 0 34Z" fill="white"/>
<mask id="path-2-inside-1_9_495" fill="white">
<path d="M100 0H308C326.778 0 342 15.2223 342 34C342 52.7777 326.778 68 308 68H100V0Z"/>
</mask>
<path d="M100 0H308C326.778 0 342 15.2223 342 34C342 52.7777 326.778 68 308 68H100V0Z" fill="white"/>
<path d="M100 -3H309C329.435 -3 346 13.5655 346 34H338C338 16.8792 324.569 3 308 3H100V-3ZM346 34C346 54.4345 329.435 71 309 71H100V65H308C324.569 65 338 51.1208 338 34H346ZM100 68V0V68ZM309 -3C329.435 -3 346 13.5655 346 34C346 54.4345 329.435 71 309 71L308 65C324.569 65 338 51.1208 338 34C338 16.8792 324.569 3 308 3L309 -3Z" fill="#0569FF" mask="url(#path-2-inside-1_9_495)"/>
<path d="M143.808 14.1201H149.506V39.5255C149.506 42.5285 148.426 45.4715 146.387 47.6336C145.607 48.5345 144.708 49.3153 143.808 49.976C140.449 52.5586 136.311 54 131.753 54C127.255 54 123.116 52.4985 119.758 49.976C118.798 49.2553 117.958 48.4745 117.119 47.6336C115.08 45.4114 114 42.4685 114 39.4655V14.1201H119.758V36.1622C119.758 42.6486 124.856 48.0541 131.333 48.2943C131.513 48.2943 131.633 48.2943 131.753 48.2943C131.933 48.2943 132.053 48.2943 132.173 48.2943C138.71 48.0541 143.808 42.6486 143.808 36.1622V14.1201Z" fill="#001833"/>
<path d="M189.418 37.003C190.318 38.6246 190.857 40.5465 190.857 42.5886C190.857 44.5706 190.318 46.4925 189.418 48.1141C187.439 51.6577 183.72 54 179.402 54C178.922 54 178.382 54 177.903 53.9399C177.423 54 176.943 54 176.403 54H155.292V22.8288H161.05V31.0571H177.363C180.062 30.5766 182.101 28.2342 182.101 25.4114C182.101 22.7087 180.182 20.4264 177.663 19.8859H155.292V14H176.403C180.662 14 184.38 16.2823 186.359 19.7658C186.359 19.7658 186.419 19.8258 186.419 19.8859C187.319 21.5075 187.859 23.4294 187.859 25.4114C187.859 27.4535 187.319 29.3754 186.419 31.0571C186.359 31.0571 186.359 31.1171 186.359 31.1171C185.999 31.7177 185.64 32.2583 185.22 32.7387C185.879 33.0991 186.479 33.5195 187.019 34C187.979 34.8408 188.758 35.8619 189.418 37.003ZM180.602 48.1141C183.181 47.5736 185.1 45.2913 185.1 42.5886C185.1 39.8258 183.121 37.4835 180.482 37.003H161.05V48.1141H180.602Z" fill="#001833"/>
<path d="M211.703 54H205.945V22.7688H211.703V54ZM226.937 19.8859H191.371V14.1201H226.937V19.8859Z" fill="#001833"/>
<path d="M262.471 14.1201H268.168V39.5255C268.168 42.5285 267.089 45.4715 265.05 47.6336C264.27 48.5345 263.37 49.3153 262.471 49.976C259.112 52.5586 254.974 54 250.416 54C245.917 54 241.779 52.4985 238.421 49.976C237.461 49.2553 236.621 48.4745 235.782 47.6336C233.742 45.4114 232.663 42.4685 232.663 39.4655V14.1201H238.421V36.1622C238.421 42.6486 243.518 48.0541 249.996 48.2943C250.176 48.2943 250.296 48.2943 250.416 48.2943C250.596 48.2943 250.716 48.2943 250.835 48.2943C257.373 48.0541 262.471 42.6486 262.471 36.1622V14.1201Z" fill="#001833"/>
<path d="M273.955 54H279.712V14.0601H273.955V54ZM279.532 14.2402V53.8198H274.135V14.2402H279.532ZM273.955 14.0601H279.712V54H273.955V14.0601Z" fill="#001833"/>
<path d="M305.766 54H300.009V22.7688H305.766V54ZM321 19.8859H285.434V14.1201H321V19.8859Z" fill="#001833"/>
<path fill-rule="evenodd" clip-rule="evenodd" d="M0 34C0 15.2223 15.2223 0 34 0H100V68H34C15.2223 68 0 52.7777 0 34ZM78.6385 24.5L78.8193 54.7598H73.3969L73.2161 24.5H78.6385ZM37.5686 24.2703L21 54H28.6517L41.3643 31.1772L37.5686 24.2703ZM65.464 54L47.088 20.8468L43.232 14L39.4363 20.8468L43.232 27.6937L57.8726 54H65.464Z" fill="url(#paint0_linear_9_495)"/>
<circle cx="76" cy="17" r="3" fill="white"/>
<defs>
<linearGradient id="paint0_linear_9_495" x1="100" y1="3.85677e-06" x2="12" y2="59.5" gradientUnits="userSpaceOnUse">
<stop stop-color="#0061FF"/>
<stop offset="1" stop-color="#60EFFF"/>
</linearGradient>
</defs>
</svg>
