<svg width="278" height="219" viewBox="0 0 278 219" fill="none" xmlns="http://www.w3.org/2000/svg">
<path d="M108.215 87.2945L131.007 45.5472L136.344 55.3102L118.856 87.3586L108.215 87.2945ZM144.217 40.8038L170.051 87.6672L159.494 87.6036L138.912 50.4179L133.576 40.7396L138.797 31.1249L144.217 40.8038Z" fill="#1A1A33"/>
<path d="M174.124 86.6002L148.31 39.6226L143.024 29.8477L153.956 30.4609L159.287 40.1636L179.726 77.5107L174.124 86.6002Z" fill="#6666FF"/>
<path d="M170.785 88.7054L147.993 130.453L142.656 120.69L160.144 88.6412L170.785 88.7054ZM134.783 135.196L108.949 88.3327L119.506 88.3963L140.088 125.582L145.424 135.26L140.203 144.875L134.783 135.196Z" fill="#1A1A33"/>
<path d="M104.876 89.3997L130.69 136.377L135.977 146.152L125.044 145.539L119.714 135.836L99.2745 98.4893L104.876 89.3997Z" fill="#6666FF"/>
<path d="M1.86 218L18.9 176.36H22.98L39.96 218H33.84L19.86 182.78H21.96L7.86 218H1.86ZM9.96 208.58V203.66H31.86V208.58H9.96ZM46.2286 218V176.36H51.8686V218H46.2286ZM89.7778 218.6C86.6978 218.6 83.9378 217.92 81.4978 216.56C79.0978 215.16 77.1978 213.26 75.7978 210.86C74.3978 208.42 73.6978 205.66 73.6978 202.58V176.36H79.3378V202.46C79.3378 204.66 79.7978 206.56 80.7178 208.16C81.6378 209.76 82.8778 211 84.4378 211.88C86.0378 212.76 87.8178 213.2 89.7778 213.2C91.8178 213.2 93.5978 212.76 95.1178 211.88C96.6778 211 97.8978 209.76 98.7778 208.16C99.6978 206.56 100.158 204.68 100.158 202.52V176.36H105.858V202.64C105.858 205.72 105.158 208.46 103.758 210.86C102.358 213.26 100.458 215.16 98.0578 216.56C95.6578 217.92 92.8978 218.6 89.7778 218.6ZM118.915 218V213.08H131.515C133.915 213.08 135.795 212.38 137.155 210.98C138.515 209.54 139.195 207.82 139.195 205.82C139.195 204.46 138.895 203.24 138.295 202.16C137.695 201.04 136.815 200.16 135.655 199.52C134.535 198.88 133.215 198.56 131.695 198.56H118.915V193.64H130.855C132.855 193.64 134.435 193.12 135.595 192.08C136.795 191 137.395 189.46 137.395 187.46C137.395 185.46 136.775 183.94 135.535 182.9C134.295 181.82 132.655 181.28 130.615 181.28H118.915V176.36H130.735C133.455 176.36 135.715 176.86 137.515 177.86C139.355 178.82 140.735 180.1 141.655 181.7C142.615 183.3 143.095 185.06 143.095 186.98C143.095 189.22 142.475 191.18 141.235 192.86C140.035 194.54 138.255 195.86 135.895 196.82L136.375 195.02C139.055 195.98 141.135 197.44 142.615 199.4C144.135 201.32 144.895 203.6 144.895 206.24C144.895 208.44 144.355 210.42 143.275 212.18C142.195 213.94 140.635 215.36 138.595 216.44C136.595 217.48 134.135 218 131.215 218H118.915ZM115.135 218V176.36H120.775V218H115.135ZM162.269 218V177.56H167.909V218H162.269ZM148.109 181.52V176.36H182.009V181.52H148.109ZM203.743 218.6C200.663 218.6 197.903 217.92 195.463 216.56C193.063 215.16 191.163 213.26 189.763 210.86C188.363 208.42 187.663 205.66 187.663 202.58V176.36H193.303V202.46C193.303 204.66 193.763 206.56 194.683 208.16C195.603 209.76 196.843 211 198.403 211.88C200.003 212.76 201.783 213.2 203.743 213.2C205.783 213.2 207.563 212.76 209.083 211.88C210.643 211 211.863 209.76 212.743 208.16C213.663 206.56 214.123 204.68 214.123 202.52V176.36H219.823V202.64C219.823 205.72 219.123 208.46 217.723 210.86C216.323 213.26 214.423 215.16 212.023 216.56C209.623 217.92 206.863 218.6 203.743 218.6ZM229.1 218V176.36H234.74V218H229.1ZM255.608 218V177.56H261.248V218H255.608ZM241.448 181.52V176.36H275.348V181.52H241.448Z" fill="#141433"/>
</svg>
